# xmcd
#
# Track frame offsets:
#	150
#	21222
#	39292
#	57264
#	75497
#	91377
#	110705
#	131013
#	149788
#	165940
#	182960
#	201038
#	218922
#	242317
#	311845
#	335554
#
# Disc length: 4795 seconds
#
# Revision: 0
# Processed by: cddbd v1.5.1PL0 Copyright (c) Steve Scherf et al.
# Submitted via: dBpowerAMP V4.0
#
DISCID=e212b910
DTITLE=Joss Stone - Mind, Body and Soul
DYEAR=2004
DGENRE=Pop
TTITLE0=Right to be wrong
TTITLE1=Jet lag
TTITLE2=You had me
TTITLE3=Spoiled
TTITLE4=Don't cha wanna ride
TTITLE5=Less is more
TTITLE6=Security
TTITLE7=Young at heart
TTITLE8=Snakes and ladders
TTITLE9=Understand
TTITLE10=Don't know how
TTITLE11=Torn and tattered
TTITLE12=Killing time
TTITLE13=Sleep like a child
TTITLE14=Untitled 15
TTITLE15=DATA
EXTD=
EXTT0=
EXTT1=
EXTT2=
EXTT3=
EXTT4=
EXTT5=
EXTT6=
EXTT7=
EXTT8=
EXTT9=
EXTT10=
EXTT11=
EXTT12=
EXTT13=
EXTT14=
EXTT15=
PLAYORDER=
